<?xml version="1.0" encoding="UTF-8" standalone="no"?>
<!DOCTYPE svg PUBLIC "-//W3C//DTD SVG 1.1//EN" "http://www.w3.org/Graphics/SVG/1.1/DTD/svg11.dtd">
<svg width="100%" height="100%" viewBox="0 0 1000 300" version="1.1" xmlns="http://www.w3.org/2000/svg" xmlns:xlink="http://www.w3.org/1999/xlink" xml:space="preserve" xmlns:serif="http://www.serif.com/" style="fill-rule:evenodd;clip-rule:evenodd;stroke-linejoin:round;stroke-miterlimit:2;">
    <path d="M121.187,69.774C121.537,69.491 123.183,68.148 124.441,66.916C129.267,62.187 136.044,54.424 136.044,54.424C136.571,53.82 137.31,53.442 138.108,53.367C143.902,52.827 177.978,52.827 183.772,53.367C185.378,53.517 186.607,54.865 186.607,56.479L186.607,180.088C186.607,189.208 187.973,196.204 190.923,201.032C193.598,205.408 198.569,207.35 205.62,207.35C206.232,207.35 206.829,207.33 207.413,207.29C207.755,205.254 207.923,203.06 207.923,200.707L207.923,56.479C207.923,55.65 208.252,54.855 208.838,54.269L225.115,37.992C225.701,37.406 226.496,37.077 227.325,37.077L271.602,37.077C273.328,37.077 274.727,38.476 274.727,40.202L274.727,89.377C278.176,78.268 283.911,68.722 291.905,60.727C294.557,58.075 301.083,51.306 303.911,48.478C309.93,42.459 321.614,33.556 330.041,30.095C338.497,26.622 348.007,24.868 358.576,24.868C368.211,24.868 377.243,26.381 385.673,29.391C394.197,32.436 401.654,37.005 408.048,43.094L408.102,43.147C414.172,49.218 419.043,56.796 422.685,65.901C426.291,74.916 428.118,85.429 428.118,97.448L428.118,97.685C429.027,92.893 430.445,88.291 432.37,83.88C435.922,75.742 460.413,49.103 463.649,46.002C469.738,39.918 476.89,35.276 485.107,32.081C493.272,28.905 502.042,27.31 511.417,27.31C520.819,27.31 529.538,28.988 537.575,32.324C545.66,35.68 552.597,40.413 558.394,46.515C564.158,52.582 568.715,59.783 572.053,68.126C572.668,69.663 573.226,71.218 573.727,72.792L573.727,50.131C573.727,49.302 574.057,48.507 574.643,47.921L590.92,31.644C591.506,31.058 592.301,30.729 593.13,30.729L637.407,30.729C639.133,30.729 640.532,32.128 640.532,33.854L640.532,46.923C644.295,42.475 648.523,38.636 653.215,35.404C660.194,30.596 669.093,28.124 679.948,28.124C690.24,28.124 698.8,30.677 705.661,35.667C711.157,39.664 715.822,43.976 719.663,48.595C724.665,43.457 730.102,38.973 735.976,35.143C743.046,30.531 752.86,28.124 765.465,28.124C771.276,28.124 777.242,29.11 783.36,31.099C789.581,33.12 795.182,36.458 800.159,41.124C805.085,45.742 809.105,51.657 812.183,58.893C815.22,66.028 816.774,74.752 816.774,85.076L816.774,103.849C818.059,96.828 820.229,90.561 823.265,85.04C824.126,83.461 825.046,81.93 826.025,80.449C830.446,73.753 854.747,49.522 863.038,44.572C873.174,38.521 885.494,35.449 900.018,35.449C914.542,35.449 926.862,38.521 936.998,44.572C947.19,50.657 955.018,58.725 960.494,68.764C963.841,74.85 966.135,81.845 967.352,89.756C968.532,97.424 969.125,105.83 969.125,114.974L969.125,138.635C969.125,147.779 968.532,156.185 967.352,163.854C966.135,171.764 963.841,178.757 960.496,184.843L960.49,184.853C957.937,189.526 947.887,202.585 941.269,209.315C935.235,215.45 924.575,223.013 920.721,225.314C910.584,231.366 898.265,234.438 883.741,234.438C869.216,234.438 856.897,231.366 846.76,225.314C836.568,219.23 828.74,211.162 823.264,201.123C820.229,195.603 818.059,189.336 816.774,182.315L816.774,221.384C816.774,222.212 816.445,223.007 815.859,223.593L799.581,239.871C798.995,240.457 798.2,240.786 797.371,240.786L753.094,240.786C751.368,240.786 749.969,239.387 749.969,237.661L749.969,117.849C749.969,110.596 748.393,104.865 745.025,100.72C741.84,96.8 737.27,94.929 731.389,94.929C730.743,94.929 730.113,94.946 729.5,94.979C728.932,98.209 728.653,101.853 728.653,105.913L728.653,237.661C728.653,238.49 728.324,239.285 727.738,239.871L711.46,256.148C710.874,256.734 710.079,257.063 709.251,257.063L664.973,257.063C663.247,257.063 661.848,255.664 661.848,253.938L661.848,117.849C661.848,110.596 660.272,104.865 656.905,100.72C653.72,96.8 649.149,94.929 643.269,94.929C642.622,94.929 641.992,94.946 641.379,94.979C640.811,98.209 640.532,101.853 640.532,105.913L640.532,253.938C640.532,254.767 640.203,255.562 639.617,256.148L623.34,272.426C622.754,273.012 621.959,273.341 621.13,273.341L576.852,273.341C575.127,273.341 573.727,271.942 573.727,270.216L573.727,216.962C570.273,225.027 565.593,232.155 559.694,238.35C556.671,241.523 529.862,266.107 521.548,269.67C513.067,273.304 503.832,275.132 493.837,275.132C475.052,275.132 459.308,269.193 446.592,257.392C440.213,251.62 435.038,244.412 431.089,235.754C429.947,233.25 428.956,230.624 428.118,227.876L428.118,250.683C428.118,251.512 427.788,252.307 427.202,252.893L410.925,269.17C410.339,269.756 409.544,270.085 408.715,270.085L364.438,270.085C362.712,270.085 361.313,268.686 361.313,266.96L361.313,252.483C356.861,257.902 352.364,262.261 347.834,265.575C341.456,270.243 332.541,272.69 321.028,272.69C315.527,272.69 309.948,271.854 304.294,270.173C298.55,268.465 293.026,265.307 287.771,260.677C282.498,256.329 278.189,250.072 274.931,241.849C273.064,237.136 271.734,231.61 270.959,225.268C270.682,225.941 270.387,226.6 270.074,227.247C266.664,234.288 261.68,240.64 257.121,246.043C253.622,250.189 245.913,257.255 239.928,261.437C234.157,265.468 228.135,269.235 221.209,271.213C214.328,273.178 207.618,274.155 201.081,274.155C186.905,274.155 175.859,271.787 167.906,267.23C160.186,262.807 153.67,256.9 146.748,251.325C146.031,250.748 145.336,250.087 144.662,249.345C143.989,250.087 143.294,250.748 142.577,251.325C135.655,256.9 129.139,262.807 121.419,267.23C113.466,271.787 102.42,274.155 88.244,274.155C81.707,274.155 74.997,273.178 68.116,271.213C61.11,269.213 54.805,265.904 49.2,261.287C43.596,256.671 39.031,250.756 35.528,243.525C32.053,236.349 30.875,227.584 30.875,217.202L30.875,89.848C30.875,89.019 31.204,88.224 31.79,87.638L48.068,71.361C48.654,70.775 49.449,70.445 50.277,70.445L94.555,70.445C96.281,70.445 97.68,71.844 97.68,73.57L97.68,184.429C97.68,191.683 99.256,197.414 102.623,201.559C105.809,205.479 110.379,207.35 116.259,207.35C116.906,207.35 117.536,207.333 118.149,207.299C118.717,204.07 118.996,200.425 118.996,196.366L118.996,72.756C118.996,71.366 119.907,70.173 121.187,69.774ZM274.727,171.894C277.037,164.382 280.548,157.918 285.231,152.497C288.318,148.895 297.749,140.141 299.634,137.958C305.154,131.522 314.648,124.837 324.149,121.619C333.383,118.491 345.146,116.896 359.445,116.896L361.313,116.896L361.313,114.594C361.313,107.76 359.93,102.094 357.039,97.626C354.357,93.48 349.37,91.673 342.299,91.673C340.519,91.673 338.794,91.875 337.123,92.282C336.872,93.163 336.653,94.077 336.463,95.022C336.355,95.565 336.104,96.07 335.736,96.484C335.736,96.484 326.135,107.29 319.113,113.095C318.553,113.559 317.849,113.812 317.122,113.812L274.727,113.812L274.727,171.894ZM573.727,160.506L573.727,99.371C570.168,103.021 563.574,109.728 559.773,113.251C559.195,113.786 558.436,114.083 557.649,114.083L515.976,114.083C514.297,114.083 512.918,112.756 512.853,111.078C512.604,104.589 510.674,99.668 506.805,96.423C502.904,93.151 498.437,91.51 493.403,91.51C492.668,91.51 491.952,91.538 491.257,91.595C491.153,92.46 491.101,93.345 491.101,94.247C491.101,97.811 492.006,101.308 493.789,104.746C495.578,108.196 500.339,111.086 507.75,113.898L507.802,113.918L533.832,124.33C551.126,131.008 562.959,140.212 569.483,151.744C571.099,154.6 572.514,157.52 573.727,160.506ZM337.962,176.28C337.287,179.153 336.958,182.395 336.958,186.003C336.958,193.597 338.711,199.774 342.377,204.487C345.832,208.929 350.67,211.094 356.84,211.094C358.113,211.094 359.332,211.017 360.498,210.86C361.045,208.266 361.313,205.405 361.313,202.281L361.313,174.978C357.758,174.43 354.748,174.151 352.283,174.151C347.072,174.151 342.297,174.854 337.962,176.28ZM881.807,102.323C881.56,104.091 881.438,105.993 881.438,108.029L881.438,145.581C881.438,153.005 883.005,158.622 886.461,162.334C889.796,165.917 894.335,167.633 900.018,167.633C900.678,167.633 901.322,167.61 901.952,167.564C902.199,165.796 902.32,163.894 902.32,161.858L902.32,124.306C902.32,116.882 900.754,111.265 897.298,107.552C893.962,103.97 889.423,102.254 883.741,102.254C883.081,102.254 882.436,102.277 881.807,102.323ZM428.118,201.017C431.471,197.79 437.61,191.802 441.829,187.201C442.421,186.555 443.257,186.188 444.132,186.188L485.805,186.188C487.361,186.188 488.679,187.331 488.899,188.871C489.704,194.503 491.649,199.733 494.733,204.56C497.544,208.96 502.592,210.931 509.68,210.931C511.422,210.931 513.108,210.755 514.739,210.4C514.928,209.149 515.021,207.835 515.021,206.459C515.021,201.104 513.656,196.504 510.851,192.679C507.941,188.711 502.582,185.382 494.913,182.472L473.659,174.665L473.64,174.657C459.159,169.227 447.789,161.131 439.493,150.421C433.721,142.97 429.92,134.404 428.118,124.713L428.118,201.017Z"/>
    <path d="M383.84,247.558L383.84,228.11C383.84,226.384 382.441,224.985 380.715,224.985L379.847,224.985C378.838,224.985 377.891,225.472 377.304,226.294C371.74,234.083 366.124,240.081 360.421,244.254C354.934,248.269 347.209,250.162 337.306,250.162C332.389,250.162 327.405,249.407 322.352,247.905C317.403,246.433 312.667,243.671 308.119,239.658L308.038,239.589C303.479,235.835 299.835,230.375 297.019,223.269C294.099,215.899 292.681,206.366 292.681,194.685C292.681,182.491 293.664,171.785 295.649,162.569C297.556,153.719 301.072,146.287 306.246,140.296L306.253,140.287C311.122,134.607 317.769,130.379 326.154,127.539C334.862,124.589 345.961,123.146 359.445,123.146L364.22,123.146C365.733,123.146 367.121,123.267 368.382,123.519C369.999,123.843 371.939,124.014 374.204,124.014C376.109,124.014 378.15,124.152 380.328,124.424C381.217,124.535 382.111,124.259 382.783,123.666C383.455,123.073 383.84,122.22 383.84,121.323L383.84,98.316C383.84,90.101 382.039,83.324 378.564,77.953C374.878,72.257 368.292,69.146 358.576,69.146C352.084,69.146 346.154,71.239 340.798,75.459C336.046,79.203 332.721,84.46 330.916,91.285L293.795,91.285C295.418,73.964 301.658,59.813 312.602,48.869C318.104,43.367 324.712,39.04 332.416,35.876C340.166,32.693 348.888,31.118 358.576,31.118C367.463,31.118 375.795,32.5 383.571,35.277C391.233,38.014 397.941,42.112 403.693,47.578C409.203,53.095 413.584,59.977 416.882,68.222C420.222,76.571 421.868,86.316 421.868,97.448L421.868,247.558L383.84,247.558ZM383.84,156.051C383.84,154.534 382.752,153.237 381.258,152.973C376.119,152.066 371.886,151.623 368.561,151.623C358.336,151.623 349.595,154.066 342.314,158.868C334.758,163.852 330.708,172.82 330.708,186.003C330.708,195.195 333.006,202.619 337.444,208.324C342.092,214.3 348.54,217.344 356.84,217.344C365.397,217.344 372.026,214.463 376.798,208.868C381.411,203.46 383.84,195.864 383.84,186.003L383.84,156.051ZM596.255,250.813L634.282,250.813L634.282,105.913C634.282,95.353 636.099,87.301 639.516,81.711C643.209,75.668 649.811,72.401 659.546,72.401C667.557,72.401 673.693,75.161 678.033,80.501C682.189,85.617 684.376,92.619 684.376,101.572L684.376,234.536L722.403,234.536L722.403,105.913C722.403,95.353 724.22,87.301 727.637,81.711C731.329,75.668 737.931,72.401 747.667,72.401C755.678,72.401 761.814,75.161 766.154,80.501C770.31,85.617 772.496,92.619 772.496,101.572L772.496,218.259L810.524,218.259L810.524,85.076C810.524,75.722 809.184,67.805 806.432,61.34C803.723,54.973 800.219,49.747 795.884,45.683C791.6,41.667 786.784,38.783 781.428,37.043C775.97,35.269 770.65,34.374 765.465,34.374C754.339,34.374 745.631,36.307 739.39,40.378C732.956,44.574 727.083,49.61 721.768,55.484C721.139,56.18 720.231,56.556 719.294,56.509C718.357,56.462 717.491,55.996 716.935,55.241C713.061,49.984 708.073,45.149 701.985,40.722C696.113,36.451 688.756,34.374 679.948,34.374C670.546,34.374 662.805,36.387 656.761,40.551C650.57,44.816 645.278,50.254 640.876,56.857C640.296,57.727 639.32,58.249 638.275,58.249L637.407,58.249C635.681,58.249 634.282,56.85 634.282,55.124L634.282,36.979L596.255,36.979L596.255,250.813ZM535.147,91.556L570.733,91.556C570.407,84.148 568.915,77.111 566.25,70.447C563.22,62.873 559.096,56.328 553.863,50.819C548.662,45.345 542.432,41.107 535.179,38.096C527.879,35.066 519.957,33.56 511.417,33.56C502.85,33.56 494.834,35.004 487.372,37.906C479.972,40.784 473.529,44.961 468.047,50.443L467.992,50.496C462.214,55.999 457.678,62.536 454.376,70.102C451.072,77.675 449.428,85.869 449.428,94.681C449.428,108.682 453.161,120.57 460.711,130.316C468.33,140.151 478.806,147.537 492.103,152.524L513.363,160.334L513.393,160.346C522.503,163.801 528.713,167.994 532.169,172.706C535.731,177.563 537.549,183.381 537.549,190.181C537.549,198.75 534.588,205.39 528.821,210.168C523.169,214.851 516.786,217.181 509.68,217.181C499.982,217.181 493.312,213.945 489.466,207.925C486.389,203.109 484.292,197.946 483.175,192.438L447.394,192.438C447.945,201.645 449.82,209.796 453.053,216.883C456.628,224.72 461.291,231.258 467.066,236.482L467.095,236.509C478.674,247.261 493.022,252.604 510.115,252.604C519.22,252.604 527.637,250.959 535.363,247.648C543.064,244.347 549.667,239.815 555.168,234.04C560.694,228.237 565.044,221.535 568.221,213.936C571.394,206.349 572.972,198.141 572.972,189.313C572.972,176.847 570,165.349 564.044,154.822C558.127,144.364 547.249,136.208 531.562,130.153L531.527,130.139L505.514,119.734C496.15,116.179 490.502,111.984 488.24,107.623C485.971,103.246 484.851,98.785 484.851,94.247C484.851,87.705 486.973,81.898 491.225,76.828C495.557,71.663 501.682,68.983 509.68,68.983C516.222,68.983 522.029,71.105 527.099,75.357C531.586,79.12 534.327,84.494 535.147,91.556ZM163.581,226.215C164.617,227.853 165.726,229.197 166.945,230.18C173.611,235.548 179.858,241.271 187.291,245.529C194.49,249.655 204.525,251.627 217.359,251.627C223.339,251.627 229.475,250.723 235.77,248.926C241.94,247.164 247.493,244.251 252.428,240.186C257.365,236.12 261.364,230.893 264.449,224.523C267.561,218.097 268.477,210.222 268.477,200.925L268.477,43.327L230.45,43.327L230.45,184.429C230.45,193.382 228.264,200.384 224.107,205.5C219.768,210.841 213.631,213.6 205.62,213.6C195.885,213.6 189.283,210.333 185.59,204.291C182.174,198.7 180.357,190.648 180.357,180.088L180.357,59.434C171.728,59.116 150.152,59.116 141.523,59.434L141.523,180.088C141.523,190.648 139.706,198.7 136.29,204.291C132.597,210.333 125.995,213.6 116.259,213.6C108.248,213.6 102.112,210.841 97.773,205.5C93.616,200.384 91.43,193.382 91.43,184.429L91.43,76.695L53.402,76.695L53.402,200.925C53.402,210.222 54.318,218.097 57.431,224.523C60.516,230.893 64.515,236.12 69.451,240.186C74.387,244.251 79.94,247.164 86.11,248.926C92.405,250.723 98.541,251.627 104.521,251.627C117.355,251.627 127.39,249.655 134.589,245.529C142.022,241.271 148.269,235.548 154.934,230.18C156.154,229.197 157.263,227.853 158.299,226.215C158.872,225.31 159.868,224.761 160.94,224.761C162.011,224.761 163.008,225.31 163.581,226.215ZM837.161,114.974C837.161,106.175 837.726,98.086 838.861,90.706C839.959,83.572 842.003,77.256 845.022,71.769L845.027,71.759C849.969,62.699 857.044,55.43 866.241,49.939C875.494,44.415 886.76,41.699 900.018,41.699C913.276,41.699 924.542,44.415 933.795,49.939C942.992,55.43 950.067,62.699 955.009,71.759L955.014,71.769C958.032,77.256 960.077,83.572 961.175,90.706C962.31,98.086 962.875,106.175 962.875,114.974L962.875,138.635C962.875,147.434 962.31,155.524 961.175,162.903C960.077,170.038 958.032,176.353 955.014,181.841L955.009,181.85C950.085,190.878 942.754,198.751 933.893,203.614C924.68,208.671 913.317,211.91 900.018,211.91C886.76,211.91 875.494,209.194 866.241,203.67C857.044,198.18 849.969,190.91 845.027,181.85L845.022,181.841C842.003,176.353 839.959,170.038 838.861,162.903C837.726,155.524 837.161,147.434 837.161,138.635L837.161,114.974ZM875.188,145.581C875.188,154.942 877.529,161.912 881.886,166.593C886.365,171.403 892.388,173.883 900.018,173.883C907.647,173.883 913.671,171.403 918.149,166.593C922.507,161.912 924.848,154.942 924.848,145.581L924.848,108.029C924.848,98.667 922.507,91.697 918.149,87.016C913.671,82.206 907.647,79.726 900.018,79.726C892.388,79.726 886.365,82.206 881.886,87.016C877.529,91.697 875.188,98.667 875.188,108.029L875.188,145.581Z" style="fill:white;"/>
</svg>
