<?xml version="1.0" encoding="UTF-8" standalone="no"?>
<!DOCTYPE svg PUBLIC "-//W3C//DTD SVG 1.1//EN" "http://www.w3.org/Graphics/SVG/1.1/DTD/svg11.dtd">
<svg width="100%" height="100%" viewBox="0 0 1000 1000" version="1.1" xmlns="http://www.w3.org/2000/svg" xmlns:xlink="http://www.w3.org/1999/xlink" xml:space="preserve" xmlns:serif="http://www.serif.com/" style="fill-rule:evenodd;clip-rule:evenodd;stroke-linejoin:round;stroke-miterlimit:2;">
    <g transform="matrix(1.083733,0,0,1.083733,-54.276521,-41.848808)">
        <path d="M229.882,663.789L203.085,702.215L165.097,742.681L150.915,765.982L130.411,847.372L124.316,895.508L125.665,913.661L135.329,924.168L152.542,939.344L119.188,941.08L102.796,914.801L91.196,903.563L103.349,852.203L119.8,772.282L122.651,720.686L167.838,659.604L170.453,602.179L168.602,590.941L166.253,589.602L155.713,547.062L155.107,531.815L150.587,542.544L146.373,503.791L161.596,484.352L161.62,484.255L174.193,467.541L194.083,456.497L243.307,429.112L380.458,432.122L426.632,407.073L503.127,368.726L529.315,357.745L550.86,358.703L570.547,369.446L580.841,373.026L618.549,368.785L639.664,364.812L634.339,359.31L619.303,345.307L594.907,327.876L569.419,305.383L552.99,290.346L530.957,263.186L511.64,236.204L491.641,188.996L475.313,132.359L473.116,97.056L477.781,94.954L480.268,98.557L482.016,107.528L482.952,114.986L482.952,122.988L486.058,128.293L488.469,127.013L487.766,122.285L486.588,117.813L485.726,112.386L485.599,105.371L486.838,100.225L488.37,96.514L491.185,97.164L495.45,104.375L497.078,113.819L501.466,120.542L505.262,129.473L510.757,134.64L516.716,134.939L518.803,129.534L520.455,123.783L519.574,115.047L515.447,104.35L513.92,89.749L513.92,79.923L514.992,66.469L516.829,59.943L521.426,58.887L525.162,61.49L525.233,73.126L528.379,87.335L532.016,105.831L538.861,125.857L546.55,139.456L551.365,146.325L558.904,146.956L564,143.366L569.208,130.643L570.666,120.162L574.245,101.917L578.8,86.796L584.788,73.68L588.838,63.657L595.072,64.605L593.609,73.838L590.056,85.748L586.36,100.121L586.331,125.081L585.544,142.262L588.865,151.518L593.239,155.879L599.404,152.315L604.952,142.348L611.115,127.202L619.309,114.308L625.754,105.865L629.971,103.847L632.629,109.265L628.443,119.361L621.793,137.467L615.882,156.057L612.518,174.342L612.518,186.231L616.263,190.429L622.356,189.117L630.159,180.889L636.722,171.478L647.395,157.15L656.34,144.506L660.418,137.693L664.168,137.234L667.164,140.844L659.584,156.448L650.527,173.709L642.22,189.135L632.158,206.254L624.057,220.761L620.431,236.662L620.311,245.659L628.38,251.513L635.66,249.786L644,244.645L654.315,230.69L663.775,212.49L673.279,192.789L683.05,170.971L684.334,167.887L681.864,158.952L672.04,124.14L675.796,122.639L679.503,123.777L681.232,128.218L682.421,132.555L687.925,141.801L692.128,149.252L697.999,154.141L704.197,155.9L708.71,156.375L710.293,153.671L710.576,150.515L710.576,137.38L711.364,132.921L715.638,133.473L718.265,138.628L719.893,146.423L724.952,158.6L730.561,167.709L737.692,170.782L744.579,169.718L746.465,165.899L746.987,158.393L746.987,149.788L749.309,145.341L753.488,148.643L756.067,159.933L757.365,171.331L760.028,178.592L769.004,183.084L779.131,180.416L783.595,176.801L787.512,170.04L790.438,159.661L792.194,151.392L795.17,149.325L798.396,156.106L795.059,167.406L791.89,192.492L791.69,206.352L797.282,214.749L802.571,217.259L810.362,217.753L818.18,215.972L825.754,210.619L831.33,203.884L836.794,197.46L839.552,192.515L841.497,188.411L844.691,190.688L844.317,196.749L841.321,201.087L838.607,208.698L833.476,214.576L827.681,225.25L823.737,243.127L824.43,254.101L829.984,266.462L839.947,271.042L849.042,267.581L861.221,261.412L873.467,254.772L882.755,247.091L888.433,239.395L890.998,232.1L895.525,233.673L895.09,239.779L890.68,250.392L885.017,259.256L876.966,268.897L867.279,275.959L842.157,297.828L815.042,329.615L810.309,337.998L810.497,342.857L814.203,343.428L818.725,342.692L823.455,340.676L829.543,337.742L836.042,334.163L843.576,327.492L852.237,319.433L855.742,315.082L859.009,312.7L860.681,317.463L857.985,322.958L851.297,331.641L845.592,338.776L839.282,347.646L826.403,357.289L818.196,362.309L816.551,366.985L820.07,369.801L827.503,369.563L834.98,365.336L843.949,362.362L851.739,357.01L857.586,351.898L862.685,348.087L869.885,339.045L873.468,334.071L876.545,333.567L878.14,336.689L877.284,341.78L874.819,346.972L869.079,353.229L861.113,363.714L851.69,371.731L841.242,378.126L836.794,381.642L837.122,385.348L841.185,385.154L847.088,383.656L851.992,381.596L857.093,378.857L860.498,374.074L863.341,368.867L868.373,363.327L871.973,360.07L878.05,353.983L880.008,353.544L882.183,357.247L880.648,361.907L873.771,367.849L869.628,372.008L869.841,375.042L873.534,374.914L878.396,371.01L882.787,367.793L888.064,363.435L890.595,358.687L892.722,356.814L894.939,359.946L894.749,365.171L892.815,369.493L895.785,367.768L899.609,364.792L904.529,360.139L916.552,346.941L924.183,330.227L926.234,322.352L931.707,325.738L928.901,335.935L921.355,354.566L912.905,365.615L900.613,380.45L882.137,393.489L857.609,401.456L831.414,405.172L804.194,405.045L778.619,402.34L764.515,394.921L756.966,393.58L744.316,390.48L729.283,391.475L735.841,404.453L733.614,421.139L780.067,477.155L772.918,519.254L755.849,531.378L720.429,529.851L698.556,499.56L686.657,490.036L656.045,485.158L631.823,499.263L628.638,544.39L623.147,588.888L594.918,614.389L578.277,619.38L574.455,624.674L565.29,705.083L565.95,739.625L564.773,785.93L569.947,826.969L578.255,865.286L600.346,885.534L617.853,898.145L610.528,905.221L579.57,902.488L570.219,884.382L562.723,884.132L559.355,890.458L552.749,888.312L551.274,871.392L542.666,780.192L542.441,779.593L521.299,811.54L500.234,849.453L478.562,877.956L462.936,895.129L466.144,858.359L480.045,841.844L471.798,846.099L467.31,839.538L490.305,827.904L499.124,813.891L533.344,753.458L517.415,686.857L510.974,631.955L508.449,624.959L504.082,624.74L452.036,642.725L385.111,658.678L327.967,651.542L284.937,639.908L284.022,647.113L277.011,703.791L275.138,744.807L277.534,770.749L286.196,795.32L321.502,847.756L356.106,895.598L368.189,901.252L372.436,909.057L334.543,913.037L322.76,889.469L317.62,897.179L309.815,892.031L309.815,882.262L289.92,846.397L252.308,789.556L222.17,750.52L228.925,712.375L231.254,676.265L229.882,663.789ZM744.189,360.075L735.068,362.57L725.816,366.025L725.278,366.261L727.647,366.389L742.185,369.213L744.189,362.153L744.189,360.075ZM723.747,285.122L715.462,297.573L708.536,308.394L697.214,324.969L683.983,336.187L680.274,345.818L683.52,348.921L692.067,347.789L710.768,338.192L727.132,324.243L737.151,315.581L726.67,293.413L723.747,285.122ZM740.608,330.831L737.765,333.79L735.202,340.976L742.744,342.812L743.085,342.632L740.608,330.831ZM633.539,294.325L633.587,294.194L653.421,311.588L664.46,324.876L682.131,310.647L704.409,288.44L718.038,268.932L716.026,263.224L704.899,237.976L692.956,199.077L688.151,181.694L661.622,246.088L654.331,258.235L638.613,281.758L633.478,294.052L633.539,294.325ZM737.643,495.451L737.308,502.906L739.113,507.896L742.602,517.639C744.975,520.882 748.453,519.06 750.365,515.806L747.16,510.217L737.643,495.451ZM657.084,346.157L657.216,345.332L656.527,330.663L640.25,308.934L636.594,306.265L657.084,346.157ZM682.305,403.917C681.008,405.021 680.506,406.948 680.482,409.37C680.814,412.339 682.004,414.567 684.497,415.671L689.579,416.927C695.07,414.956 696.703,411.668 694.162,406.958C693.568,404.552 692.065,403.471 690.218,402.893L686.955,402.52L685.814,403.22L690.902,407.032L690.971,410.561L689.186,412.105L685.539,411.458L684.092,408.916L684.353,406.28L687.326,404.745C687.025,404.54 685.666,403.305 685.359,403.217C684.312,402.92 683.375,403.728 682.305,403.917Z" style="fill:white;"/>
    </g>
</svg>
