<?xml version="1.0" encoding="UTF-8" standalone="no"?>
<!DOCTYPE svg PUBLIC "-//W3C//DTD SVG 1.1//EN" "http://www.w3.org/Graphics/SVG/1.1/DTD/svg11.dtd">
<svg width="100%" height="100%" viewBox="0 0 512 512" version="1.1" xmlns="http://www.w3.org/2000/svg" xmlns:xlink="http://www.w3.org/1999/xlink" xml:space="preserve" xmlns:serif="http://www.serif.com/" style="fill-rule:evenodd;clip-rule:evenodd;stroke-linecap:round;stroke-linejoin:round;stroke-miterlimit:1.5;">
    <g transform="matrix(1,0,0,1,-2810,0)">
        <rect id="Artboard6" x="2810" y="0" width="512" height="512" style="fill:none;"/>
        <clipPath id="_clip1">
            <rect id="Artboard61" serif:id="Artboard6" x="2810" y="0" width="512" height="512"/>
        </clipPath>
        <g clip-path="url(#_clip1)">
            <g transform="matrix(1,0,0,1,2810,0)">
                <rect x="-20.82" y="-15.855" width="572.534" height="548.839" style="fill:rgb(49,49,49);stroke:rgb(106,106,106);stroke-width:1px;"/>
            </g>
            <g transform="matrix(1.123799,0,0,1.123799,-520.963644,-61.179133)">
                <path d="M3203.335,126.642L3293.701,164.072L3282.185,191.873L3309.986,180.358L3347.417,270.723L3319.616,282.238L3347.417,293.754L3309.986,384.119L3282.185,372.604L3293.701,400.405L3203.335,437.835L3191.82,410.034L3180.304,437.835L3089.939,400.405L3101.455,372.604L3073.654,384.119L3036.223,293.754L3064.024,282.238L3036.223,270.723L3073.654,180.358L3101.455,191.873L3089.939,164.072L3180.304,126.642L3191.82,154.442L3203.335,126.642Z" style="fill:none;stroke:rgb(51,24,255);stroke-width:22.25px;stroke-linejoin:miter;"/>
                <path d="M3203.335,126.642L3293.701,164.072L3282.185,191.873L3309.986,180.358L3347.417,270.723L3319.616,282.238L3347.417,293.754L3309.986,384.119L3282.185,372.604L3293.701,400.405L3203.335,437.835L3191.82,410.034L3180.304,437.835L3089.939,400.405L3101.455,372.604L3073.654,384.119L3036.223,293.754L3064.024,282.238L3036.223,270.723L3073.654,180.358L3101.455,191.873L3089.939,164.072L3180.304,126.642L3191.82,154.442L3203.335,126.642Z" style="fill:white;"/>
            </g>
            <g transform="matrix(1.056924,0,0,1.056924,-307.512448,-42.304599)">
                <path d="M3203.335,126.642L3293.701,164.072L3282.185,191.873L3309.986,180.358L3347.417,270.723L3319.616,282.238L3347.417,293.754L3309.986,384.119L3282.185,372.604L3293.701,400.405L3203.335,437.835L3191.82,410.034L3180.304,437.835L3089.939,400.405L3101.455,372.604L3073.654,384.119L3036.223,293.754L3064.024,282.238L3036.223,270.723L3073.654,180.358L3101.455,191.873L3089.939,164.072L3180.304,126.642L3191.82,154.442L3203.335,126.642Z" style="fill:none;stroke:rgb(89,24,255);stroke-width:23.65px;stroke-linejoin:miter;"/>
                <path d="M3203.335,126.642L3293.701,164.072L3282.185,191.873L3309.986,180.358L3347.417,270.723L3319.616,282.238L3347.417,293.754L3309.986,384.119L3282.185,372.604L3293.701,400.405L3203.335,437.835L3191.82,410.034L3180.304,437.835L3089.939,400.405L3101.455,372.604L3073.654,384.119L3036.223,293.754L3064.024,282.238L3036.223,270.723L3073.654,180.358L3101.455,191.873L3089.939,164.072L3180.304,126.642L3191.82,154.442L3203.335,126.642Z" style="fill:white;"/>
            </g>
            <g transform="matrix(1,0,0,1,-125.819906,-26.238342)">
                <path d="M3203.335,126.642L3293.701,164.072L3282.185,191.873L3309.986,180.358L3347.417,270.723L3319.616,282.238L3347.417,293.754L3309.986,384.119L3282.185,372.604L3293.701,400.405L3203.335,437.835L3191.82,410.034L3180.304,437.835L3089.939,400.405L3101.455,372.604L3073.654,384.119L3036.223,293.754L3064.024,282.238L3036.223,270.723L3073.654,180.358L3101.455,191.873L3089.939,164.072L3180.304,126.642L3191.82,154.442L3203.335,126.642Z" style="fill:none;stroke:rgb(193,24,255);stroke-width:25px;stroke-linejoin:miter;"/>
                <path d="M3203.335,126.642L3293.701,164.072L3282.185,191.873L3309.986,180.358L3347.417,270.723L3319.616,282.238L3347.417,293.754L3309.986,384.119L3282.185,372.604L3293.701,400.405L3203.335,437.835L3191.82,410.034L3180.304,437.835L3089.939,400.405L3101.455,372.604L3073.654,384.119L3036.223,293.754L3064.024,282.238L3036.223,270.723L3073.654,180.358L3101.455,191.873L3089.939,164.072L3180.304,126.642L3191.82,154.442L3203.335,126.642Z" style="fill:white;"/>
            </g>
            <g transform="matrix(0.559915,-0.066678,-0.074616,0.5688,1333.516023,413.700037)">
                <path d="M3240.974,212.348L3240.974,155.009C3240.974,146.066 3233.526,144.488 3221.291,144.488L3123.409,144.488L3229.271,-24.899C3231.398,-28.581 3235.122,-35.946 3235.122,-42.259L3235.122,-66.457C3235.122,-73.295 3225.547,-76.452 3218.631,-76.452L2981.375,-76.452C2971.267,-76.452 2970.203,-71.191 2969.671,-65.931L2969.671,-9.118C2969.139,0.351 2977.651,1.929 2989.886,1.929L3083.512,1.929L2980.843,167.634C2976.055,173.947 2971.267,182.89 2971.267,188.676L2971.267,212.874C2971.267,219.713 2975.523,222.869 2982.439,222.869L3229.271,222.869C3239.378,222.869 3240.974,217.609 3240.974,212.348Z" style="fill:rgb(5,255,209);fill-rule:nonzero;stroke:black;stroke-width:16.88px;stroke-linecap:butt;stroke-miterlimit:2;"/>
            </g>
        </g>
    </g>
</svg>
