<?xml version="1.0" encoding="UTF-8" standalone="no"?>
<!DOCTYPE svg PUBLIC "-//W3C//DTD SVG 1.1//EN" "http://www.w3.org/Graphics/SVG/1.1/DTD/svg11.dtd">
<svg width="100%" height="100%" viewBox="0 0 512 512" version="1.1" xmlns="http://www.w3.org/2000/svg" xmlns:xlink="http://www.w3.org/1999/xlink" xml:space="preserve" xmlns:serif="http://www.serif.com/" style="fill-rule:evenodd;clip-rule:evenodd;stroke-linejoin:round;stroke-miterlimit:2;">
    <g transform="matrix(1,0,0,1,-1686,0)">
        <rect id="Artboard4" x="1686" y="0" width="512" height="512" style="fill:none;"/>
        <clipPath id="_clip1">
            <rect id="Artboard41" serif:id="Artboard4" x="1686" y="0" width="512" height="512"/>
        </clipPath>
        <g clip-path="url(#_clip1)">
            <g transform="matrix(1,0,0,1,1686,0)">
                <rect x="-20.82" y="-15.855" width="572.534" height="548.839" style="fill:rgb(234,150,246);"/>
            </g>
            <g transform="matrix(1,0,0,1,-49.441834,219.871697)">
                <path d="M1991.654,-116.385C1980.198,-127.293 1972.561,-132.748 1956.862,-142.817C1951.771,-119.741 1950.074,-106.735 1950.074,-94.148C1950.074,-75.267 1953.468,-54.708 1959.832,-35.408C1966.621,-15.269 1972.985,-3.521 1991.654,21.653C2007.777,-0.164 2014.141,-10.654 2020.081,-25.758C2028.567,-47.156 2033.234,-71.491 2033.234,-94.567C2033.234,-107.574 2031.537,-119.741 2026.446,-142.817C2010.747,-133.167 2003.11,-127.293 1991.654,-116.385ZM1991.654,-93.308C1999.291,-101.7 2004.383,-106.315 2014.141,-113.448C2014.99,-104.217 2015.414,-96.665 2015.414,-92.05C2015.414,-78.204 2012.868,-60.582 2007.777,-43.799C2003.958,-29.954 2000.988,-23.241 1991.654,-6.458C1983.593,-20.723 1980.622,-27.436 1977.228,-37.086C1971.712,-55.547 1967.894,-76.526 1967.894,-92.05C1967.894,-96.665 1968.318,-104.217 1969.167,-113.448C1978.925,-106.315 1983.593,-102.119 1991.654,-93.308ZM1896.613,173.537C1898.735,187.802 1901.281,196.613 1908.493,215.074C1938.194,188.641 1950.074,173.956 1962.802,145.426C1975.107,118.154 1978.501,100.532 1978.501,61.932C1941.588,73.68 1925.465,82.071 1902.978,102.21C1879.642,123.189 1869.035,138.713 1852.912,174.796C1862.246,175.215 1866.489,175.635 1870.308,175.635C1878.793,175.635 1887.279,174.796 1896.613,173.537ZM1910.191,155.076C1899.159,157.174 1891.946,158.013 1880.066,158.013C1892.795,137.454 1899.583,128.643 1915.706,114.378C1931.829,100.112 1940.739,94.238 1961.954,84.588C1959.408,106.826 1956.438,116.476 1948.377,134.937C1939.467,155.495 1933.102,165.565 1916.555,184.446C1913.161,174.376 1911.464,166.824 1910.191,155.076ZM2087.119,173.537C2096.453,175.215 2103.666,175.635 2113,175.635C2117.243,175.635 2121.486,175.635 2130.396,174.796C2114.273,138.713 2103.666,123.189 2080.33,102.21C2057.843,82.071 2041.72,73.68 2004.807,61.932C2004.807,100.532 2008.201,118.154 2020.506,145.426C2033.234,173.956 2045.114,188.641 2074.814,214.654C2081.603,197.033 2084.573,187.802 2087.119,173.537ZM2073.542,154.656C2072.269,164.726 2070.572,172.278 2066.753,184.026C2050.63,165.985 2044.69,156.754 2035.78,137.034C2027.294,118.154 2024.748,107.665 2021.778,84.588C2042.144,93.819 2050.63,99.273 2065.904,112.699C2082.876,127.384 2090.513,136.615 2103.666,158.013L2099.847,158.013C2092.635,158.013 2084.573,156.754 2073.542,154.656ZM1837.637,-5.619C1824.06,1.094 1816.847,6.129 1801.149,18.716C1824.909,32.562 1836.789,38.016 1852.912,42.212C1869.459,46.827 1888.128,49.345 1905.523,49.345C1926.738,49.345 1940.315,46.827 1970.44,37.177C1947.528,6.129 1934.375,-6.458 1908.069,-21.562C1880.915,-37.086 1862.67,-42.121 1822.787,-46.317C1827.454,-28.275 1830.849,-19.464 1837.637,-5.619ZM1859.7,1.514C1854.609,-7.297 1851.215,-14.849 1847.396,-25.758C1871.156,-20.304 1881.763,-16.108 1900.432,-5.619C1918.676,4.87 1927.162,11.584 1943.285,28.366C1927.162,31.723 1919.525,32.562 1909.342,32.562C1882.188,32.562 1860.549,27.947 1833.394,16.618C1842.729,9.905 1848.245,6.549 1859.7,1.514ZM2145.671,-6.038C2152.459,-18.625 2155.429,-27.017 2160.521,-46.317C2120.638,-42.121 2102.393,-37.086 2075.239,-21.562C2048.933,-6.458 2035.78,6.129 2012.868,37.177C2042.993,46.827 2056.57,49.345 2077.36,49.345C2091.786,49.345 2106.636,47.666 2120.638,44.729C2141.428,40.114 2154.156,34.66 2181.735,18.297C2168.582,7.807 2160.945,2.353 2145.671,-6.038ZM2123.608,1.094C2133.366,5.71 2138.882,9.066 2149.489,16.618C2122.759,27.947 2102.817,32.142 2074.814,32.142C2063.359,32.142 2056.146,31.303 2040.023,27.947C2055.297,12.003 2063.359,5.71 2080.755,-4.78C2100.272,-16.108 2111.303,-20.304 2135.912,-26.178C2132.942,-16.527 2130.396,-11.073 2123.608,1.094Z" style="fill:rgb(228,26,255);fill-opacity:0.45;fill-rule:nonzero;"/>
            </g>
            <g transform="matrix(1.085808,0.626892,-0.626892,1.085808,-197.675459,-1031.646749)">
                <path d="M1991.654,-116.385C1980.198,-127.293 1972.561,-132.748 1956.862,-142.817C1951.771,-119.741 1950.074,-106.735 1950.074,-94.148C1950.074,-75.267 1953.468,-54.708 1959.832,-35.408C1966.621,-15.269 1972.985,-3.521 1991.654,21.653C2007.777,-0.164 2014.141,-10.654 2020.081,-25.758C2028.567,-47.156 2033.234,-71.491 2033.234,-94.567C2033.234,-107.574 2031.537,-119.741 2026.446,-142.817C2010.747,-133.167 2003.11,-127.293 1991.654,-116.385ZM1991.654,-93.308C1999.291,-101.7 2004.383,-106.315 2014.141,-113.448C2014.99,-104.217 2015.414,-96.665 2015.414,-92.05C2015.414,-78.204 2012.868,-60.582 2007.777,-43.799C2003.958,-29.954 2000.988,-23.241 1991.654,-6.458C1983.593,-20.723 1980.622,-27.436 1977.228,-37.086C1971.712,-55.547 1967.894,-76.526 1967.894,-92.05C1967.894,-96.665 1968.318,-104.217 1969.167,-113.448C1978.925,-106.315 1983.593,-102.119 1991.654,-93.308ZM1896.613,173.537C1898.735,187.802 1901.281,196.613 1908.493,215.074C1938.194,188.641 1950.074,173.956 1962.802,145.426C1975.107,118.154 1978.501,100.532 1978.501,61.932C1941.588,73.68 1925.465,82.071 1902.978,102.21C1879.642,123.189 1869.035,138.713 1852.912,174.796C1862.246,175.215 1866.489,175.635 1870.308,175.635C1878.793,175.635 1887.279,174.796 1896.613,173.537ZM1910.191,155.076C1899.159,157.174 1891.946,158.013 1880.066,158.013C1892.795,137.454 1899.583,128.643 1915.706,114.378C1931.829,100.112 1940.739,94.238 1961.954,84.588C1959.408,106.826 1956.438,116.476 1948.377,134.937C1939.467,155.495 1933.102,165.565 1916.555,184.446C1913.161,174.376 1911.464,166.824 1910.191,155.076ZM2087.119,173.537C2096.453,175.215 2103.666,175.635 2113,175.635C2117.243,175.635 2121.486,175.635 2130.396,174.796C2114.273,138.713 2103.666,123.189 2080.33,102.21C2057.843,82.071 2041.72,73.68 2004.807,61.932C2004.807,100.532 2008.201,118.154 2020.506,145.426C2033.234,173.956 2045.114,188.641 2074.814,214.654C2081.603,197.033 2084.573,187.802 2087.119,173.537ZM2073.542,154.656C2072.269,164.726 2070.572,172.278 2066.753,184.026C2050.63,165.985 2044.69,156.754 2035.78,137.034C2027.294,118.154 2024.748,107.665 2021.778,84.588C2042.144,93.819 2050.63,99.273 2065.904,112.699C2082.876,127.384 2090.513,136.615 2103.666,158.013L2099.847,158.013C2092.635,158.013 2084.573,156.754 2073.542,154.656ZM1837.637,-5.619C1824.06,1.094 1816.847,6.129 1801.149,18.716C1824.909,32.562 1836.789,38.016 1852.912,42.212C1869.459,46.827 1888.128,49.345 1905.523,49.345C1926.738,49.345 1940.315,46.827 1970.44,37.177C1947.528,6.129 1934.375,-6.458 1908.069,-21.562C1880.915,-37.086 1862.67,-42.121 1822.787,-46.317C1827.454,-28.275 1830.849,-19.464 1837.637,-5.619ZM1859.7,1.514C1854.609,-7.297 1851.215,-14.849 1847.396,-25.758C1871.156,-20.304 1881.763,-16.108 1900.432,-5.619C1918.676,4.87 1927.162,11.584 1943.285,28.366C1927.162,31.723 1919.525,32.562 1909.342,32.562C1882.188,32.562 1860.549,27.947 1833.394,16.618C1842.729,9.905 1848.245,6.549 1859.7,1.514ZM2145.671,-6.038C2152.459,-18.625 2155.429,-27.017 2160.521,-46.317C2120.638,-42.121 2102.393,-37.086 2075.239,-21.562C2048.933,-6.458 2035.78,6.129 2012.868,37.177C2042.993,46.827 2056.57,49.345 2077.36,49.345C2091.786,49.345 2106.636,47.666 2120.638,44.729C2141.428,40.114 2154.156,34.66 2181.735,18.297C2168.582,7.807 2160.945,2.353 2145.671,-6.038ZM2123.608,1.094C2133.366,5.71 2138.882,9.066 2149.489,16.618C2122.759,27.947 2102.817,32.142 2074.814,32.142C2063.359,32.142 2056.146,31.303 2040.023,27.947C2055.297,12.003 2063.359,5.71 2080.755,-4.78C2100.272,-16.108 2111.303,-20.304 2135.912,-26.178C2132.942,-16.527 2130.396,-11.073 2123.608,1.094Z" style="fill:rgb(228,26,255);fill-opacity:0.45;fill-rule:nonzero;"/>
            </g>
            <g transform="matrix(0.898682,1.556562,-1.556562,0.898682,208.563723,-2876.271076)">
                <path d="M1991.654,-116.385C1980.198,-127.293 1972.561,-132.748 1956.862,-142.817C1951.771,-119.741 1950.074,-106.735 1950.074,-94.148C1950.074,-75.267 1953.468,-54.708 1959.832,-35.408C1966.621,-15.269 1972.985,-3.521 1991.654,21.653C2007.777,-0.164 2014.141,-10.654 2020.081,-25.758C2028.567,-47.156 2033.234,-71.491 2033.234,-94.567C2033.234,-107.574 2031.537,-119.741 2026.446,-142.817C2010.747,-133.167 2003.11,-127.293 1991.654,-116.385ZM1991.654,-93.308C1999.291,-101.7 2004.383,-106.315 2014.141,-113.448C2014.99,-104.217 2015.414,-96.665 2015.414,-92.05C2015.414,-78.204 2012.868,-60.582 2007.777,-43.799C2003.958,-29.954 2000.988,-23.241 1991.654,-6.458C1983.593,-20.723 1980.622,-27.436 1977.228,-37.086C1971.712,-55.547 1967.894,-76.526 1967.894,-92.05C1967.894,-96.665 1968.318,-104.217 1969.167,-113.448C1978.925,-106.315 1983.593,-102.119 1991.654,-93.308ZM1896.613,173.537C1898.735,187.802 1901.281,196.613 1908.493,215.074C1938.194,188.641 1950.074,173.956 1962.802,145.426C1975.107,118.154 1978.501,100.532 1978.501,61.932C1941.588,73.68 1925.465,82.071 1902.978,102.21C1879.642,123.189 1869.035,138.713 1852.912,174.796C1862.246,175.215 1866.489,175.635 1870.308,175.635C1878.793,175.635 1887.279,174.796 1896.613,173.537ZM1910.191,155.076C1899.159,157.174 1891.946,158.013 1880.066,158.013C1892.795,137.454 1899.583,128.643 1915.706,114.378C1931.829,100.112 1940.739,94.238 1961.954,84.588C1959.408,106.826 1956.438,116.476 1948.377,134.937C1939.467,155.495 1933.102,165.565 1916.555,184.446C1913.161,174.376 1911.464,166.824 1910.191,155.076ZM2087.119,173.537C2096.453,175.215 2103.666,175.635 2113,175.635C2117.243,175.635 2121.486,175.635 2130.396,174.796C2114.273,138.713 2103.666,123.189 2080.33,102.21C2057.843,82.071 2041.72,73.68 2004.807,61.932C2004.807,100.532 2008.201,118.154 2020.506,145.426C2033.234,173.956 2045.114,188.641 2074.814,214.654C2081.603,197.033 2084.573,187.802 2087.119,173.537ZM2073.542,154.656C2072.269,164.726 2070.572,172.278 2066.753,184.026C2050.63,165.985 2044.69,156.754 2035.78,137.034C2027.294,118.154 2024.748,107.665 2021.778,84.588C2042.144,93.819 2050.63,99.273 2065.904,112.699C2082.876,127.384 2090.513,136.615 2103.666,158.013L2099.847,158.013C2092.635,158.013 2084.573,156.754 2073.542,154.656ZM1837.637,-5.619C1824.06,1.094 1816.847,6.129 1801.149,18.716C1824.909,32.562 1836.789,38.016 1852.912,42.212C1869.459,46.827 1888.128,49.345 1905.523,49.345C1926.738,49.345 1940.315,46.827 1970.44,37.177C1947.528,6.129 1934.375,-6.458 1908.069,-21.562C1880.915,-37.086 1862.67,-42.121 1822.787,-46.317C1827.454,-28.275 1830.849,-19.464 1837.637,-5.619ZM1859.7,1.514C1854.609,-7.297 1851.215,-14.849 1847.396,-25.758C1871.156,-20.304 1881.763,-16.108 1900.432,-5.619C1918.676,4.87 1927.162,11.584 1943.285,28.366C1927.162,31.723 1919.525,32.562 1909.342,32.562C1882.188,32.562 1860.549,27.947 1833.394,16.618C1842.729,9.905 1848.245,6.549 1859.7,1.514ZM2145.671,-6.038C2152.459,-18.625 2155.429,-27.017 2160.521,-46.317C2120.638,-42.121 2102.393,-37.086 2075.239,-21.562C2048.933,-6.458 2035.78,6.129 2012.868,37.177C2042.993,46.827 2056.57,49.345 2077.36,49.345C2091.786,49.345 2106.636,47.666 2120.638,44.729C2141.428,40.114 2154.156,34.66 2181.735,18.297C2168.582,7.807 2160.945,2.353 2145.671,-6.038ZM2123.608,1.094C2133.366,5.71 2138.882,9.066 2149.489,16.618C2122.759,27.947 2102.817,32.142 2074.814,32.142C2063.359,32.142 2056.146,31.303 2040.023,27.947C2055.297,12.003 2063.359,5.71 2080.755,-4.78C2100.272,-16.108 2111.303,-20.304 2135.912,-26.178C2132.942,-16.527 2130.396,-11.073 2123.608,1.094Z" style="fill:rgb(228,26,255);fill-opacity:0.45;fill-rule:nonzero;"/>
            </g>
            <g transform="matrix(0,2.542277,-2.542277,0,2033.848159,-4806.797012)">
                <path d="M1991.654,-116.385C1980.198,-127.293 1972.561,-132.748 1956.862,-142.817C1951.771,-119.741 1950.074,-106.735 1950.074,-94.148C1950.074,-75.267 1953.468,-54.708 1959.832,-35.408C1966.621,-15.269 1972.985,-3.521 1991.654,21.653C2007.777,-0.164 2014.141,-10.654 2020.081,-25.758C2028.567,-47.156 2033.234,-71.491 2033.234,-94.567C2033.234,-107.574 2031.537,-119.741 2026.446,-142.817C2010.747,-133.167 2003.11,-127.293 1991.654,-116.385ZM1991.654,-93.308C1999.291,-101.7 2004.383,-106.315 2014.141,-113.448C2014.99,-104.217 2015.414,-96.665 2015.414,-92.05C2015.414,-78.204 2012.868,-60.582 2007.777,-43.799C2003.958,-29.954 2000.988,-23.241 1991.654,-6.458C1983.593,-20.723 1980.622,-27.436 1977.228,-37.086C1971.712,-55.547 1967.894,-76.526 1967.894,-92.05C1967.894,-96.665 1968.318,-104.217 1969.167,-113.448C1978.925,-106.315 1983.593,-102.119 1991.654,-93.308ZM1896.613,173.537C1898.735,187.802 1901.281,196.613 1908.493,215.074C1938.194,188.641 1950.074,173.956 1962.802,145.426C1975.107,118.154 1978.501,100.532 1978.501,61.932C1941.588,73.68 1925.465,82.071 1902.978,102.21C1879.642,123.189 1869.035,138.713 1852.912,174.796C1862.246,175.215 1866.489,175.635 1870.308,175.635C1878.793,175.635 1887.279,174.796 1896.613,173.537ZM1910.191,155.076C1899.159,157.174 1891.946,158.013 1880.066,158.013C1892.795,137.454 1899.583,128.643 1915.706,114.378C1931.829,100.112 1940.739,94.238 1961.954,84.588C1959.408,106.826 1956.438,116.476 1948.377,134.937C1939.467,155.495 1933.102,165.565 1916.555,184.446C1913.161,174.376 1911.464,166.824 1910.191,155.076ZM2087.119,173.537C2096.453,175.215 2103.666,175.635 2113,175.635C2117.243,175.635 2121.486,175.635 2130.396,174.796C2114.273,138.713 2103.666,123.189 2080.33,102.21C2057.843,82.071 2041.72,73.68 2004.807,61.932C2004.807,100.532 2008.201,118.154 2020.506,145.426C2033.234,173.956 2045.114,188.641 2074.814,214.654C2081.603,197.033 2084.573,187.802 2087.119,173.537ZM2073.542,154.656C2072.269,164.726 2070.572,172.278 2066.753,184.026C2050.63,165.985 2044.69,156.754 2035.78,137.034C2027.294,118.154 2024.748,107.665 2021.778,84.588C2042.144,93.819 2050.63,99.273 2065.904,112.699C2082.876,127.384 2090.513,136.615 2103.666,158.013L2099.847,158.013C2092.635,158.013 2084.573,156.754 2073.542,154.656ZM1837.637,-5.619C1824.06,1.094 1816.847,6.129 1801.149,18.716C1824.909,32.562 1836.789,38.016 1852.912,42.212C1869.459,46.827 1888.128,49.345 1905.523,49.345C1926.738,49.345 1940.315,46.827 1970.44,37.177C1947.528,6.129 1934.375,-6.458 1908.069,-21.562C1880.915,-37.086 1862.67,-42.121 1822.787,-46.317C1827.454,-28.275 1830.849,-19.464 1837.637,-5.619ZM1859.7,1.514C1854.609,-7.297 1851.215,-14.849 1847.396,-25.758C1871.156,-20.304 1881.763,-16.108 1900.432,-5.619C1918.676,4.87 1927.162,11.584 1943.285,28.366C1927.162,31.723 1919.525,32.562 1909.342,32.562C1882.188,32.562 1860.549,27.947 1833.394,16.618C1842.729,9.905 1848.245,6.549 1859.7,1.514ZM2145.671,-6.038C2152.459,-18.625 2155.429,-27.017 2160.521,-46.317C2120.638,-42.121 2102.393,-37.086 2075.239,-21.562C2048.933,-6.458 2035.78,6.129 2012.868,37.177C2042.993,46.827 2056.57,49.345 2077.36,49.345C2091.786,49.345 2106.636,47.666 2120.638,44.729C2141.428,40.114 2154.156,34.66 2181.735,18.297C2168.582,7.807 2160.945,2.353 2145.671,-6.038ZM2123.608,1.094C2133.366,5.71 2138.882,9.066 2149.489,16.618C2122.759,27.947 2102.817,32.142 2074.814,32.142C2063.359,32.142 2056.146,31.303 2040.023,27.947C2055.297,12.003 2063.359,5.71 2080.755,-4.78C2100.272,-16.108 2111.303,-20.304 2135.912,-26.178C2132.942,-16.527 2130.396,-11.073 2123.608,1.094Z" style="fill:rgb(228,26,255);fill-opacity:0.45;fill-rule:nonzero;"/>
            </g>
            <g transform="matrix(-0.837574,0,0,-0.837574,3609.978936,286.26011)">
                <path d="M1991.654,-116.385C1980.198,-127.293 1972.561,-132.748 1956.862,-142.817C1951.771,-119.741 1950.074,-106.735 1950.074,-94.148C1950.074,-75.267 1953.468,-54.708 1959.832,-35.408C1966.621,-15.269 1972.985,-3.521 1991.654,21.653C2007.777,-0.164 2014.141,-10.654 2020.081,-25.758C2028.567,-47.156 2033.234,-71.491 2033.234,-94.567C2033.234,-107.574 2031.537,-119.741 2026.446,-142.817C2010.747,-133.167 2003.11,-127.293 1991.654,-116.385ZM1991.654,-93.308C1999.291,-101.7 2004.383,-106.315 2014.141,-113.448C2014.99,-104.217 2015.414,-96.665 2015.414,-92.05C2015.414,-78.204 2012.868,-60.582 2007.777,-43.799C2003.958,-29.954 2000.988,-23.241 1991.654,-6.458C1983.593,-20.723 1980.622,-27.436 1977.228,-37.086C1971.712,-55.547 1967.894,-76.526 1967.894,-92.05C1967.894,-96.665 1968.318,-104.217 1969.167,-113.448C1978.925,-106.315 1983.593,-102.119 1991.654,-93.308ZM1896.613,173.537C1898.735,187.802 1901.281,196.613 1908.493,215.074C1938.194,188.641 1950.074,173.956 1962.802,145.426C1975.107,118.154 1978.501,100.532 1978.501,61.932C1941.588,73.68 1925.465,82.071 1902.978,102.21C1879.642,123.189 1869.035,138.713 1852.912,174.796C1862.246,175.215 1866.489,175.635 1870.308,175.635C1878.793,175.635 1887.279,174.796 1896.613,173.537ZM1910.191,155.076C1899.159,157.174 1891.946,158.013 1880.066,158.013C1892.795,137.454 1899.583,128.643 1915.706,114.378C1931.829,100.112 1940.739,94.238 1961.954,84.588C1959.408,106.826 1956.438,116.476 1948.377,134.937C1939.467,155.495 1933.102,165.565 1916.555,184.446C1913.161,174.376 1911.464,166.824 1910.191,155.076ZM2087.119,173.537C2096.453,175.215 2103.666,175.635 2113,175.635C2117.243,175.635 2121.486,175.635 2130.396,174.796C2114.273,138.713 2103.666,123.189 2080.33,102.21C2057.843,82.071 2041.72,73.68 2004.807,61.932C2004.807,100.532 2008.201,118.154 2020.506,145.426C2033.234,173.956 2045.114,188.641 2074.814,214.654C2081.603,197.033 2084.573,187.802 2087.119,173.537ZM2073.542,154.656C2072.269,164.726 2070.572,172.278 2066.753,184.026C2050.63,165.985 2044.69,156.754 2035.78,137.034C2027.294,118.154 2024.748,107.665 2021.778,84.588C2042.144,93.819 2050.63,99.273 2065.904,112.699C2082.876,127.384 2090.513,136.615 2103.666,158.013L2099.847,158.013C2092.635,158.013 2084.573,156.754 2073.542,154.656ZM1837.637,-5.619C1824.06,1.094 1816.847,6.129 1801.149,18.716C1824.909,32.562 1836.789,38.016 1852.912,42.212C1869.459,46.827 1888.128,49.345 1905.523,49.345C1926.738,49.345 1940.315,46.827 1970.44,37.177C1947.528,6.129 1934.375,-6.458 1908.069,-21.562C1880.915,-37.086 1862.67,-42.121 1822.787,-46.317C1827.454,-28.275 1830.849,-19.464 1837.637,-5.619ZM1859.7,1.514C1854.609,-7.297 1851.215,-14.849 1847.396,-25.758C1871.156,-20.304 1881.763,-16.108 1900.432,-5.619C1918.676,4.87 1927.162,11.584 1943.285,28.366C1927.162,31.723 1919.525,32.562 1909.342,32.562C1882.188,32.562 1860.549,27.947 1833.394,16.618C1842.729,9.905 1848.245,6.549 1859.7,1.514ZM2145.671,-6.038C2152.459,-18.625 2155.429,-27.017 2160.521,-46.317C2120.638,-42.121 2102.393,-37.086 2075.239,-21.562C2048.933,-6.458 2035.78,6.129 2012.868,37.177C2042.993,46.827 2056.57,49.345 2077.36,49.345C2091.786,49.345 2106.636,47.666 2120.638,44.729C2141.428,40.114 2154.156,34.66 2181.735,18.297C2168.582,7.807 2160.945,2.353 2145.671,-6.038ZM2123.608,1.094C2133.366,5.71 2138.882,9.066 2149.489,16.618C2122.759,27.947 2102.817,32.142 2074.814,32.142C2063.359,32.142 2056.146,31.303 2040.023,27.947C2055.297,12.003 2063.359,5.71 2080.755,-4.78C2100.272,-16.108 2111.303,-20.304 2135.912,-26.178C2132.942,-16.527 2130.396,-11.073 2123.608,1.094Z" style="fill:white;fill-rule:nonzero;"/>
            </g>
        </g>
    </g>
</svg>
