<?xml version="1.0" encoding="UTF-8" standalone="no"?>
<!DOCTYPE svg PUBLIC "-//W3C//DTD SVG 1.1//EN" "http://www.w3.org/Graphics/SVG/1.1/DTD/svg11.dtd">
<svg width="100%" height="100%" viewBox="0 0 512 512" version="1.1" xmlns="http://www.w3.org/2000/svg" xmlns:xlink="http://www.w3.org/1999/xlink" xml:space="preserve" xmlns:serif="http://www.serif.com/" style="fill-rule:evenodd;clip-rule:evenodd;stroke-linejoin:round;stroke-miterlimit:2;">
    <rect id="Artboard1" x="0" y="0" width="512" height="512" style="fill:none;"/>
    <clipPath id="_clip1">
        <rect id="Artboard11" serif:id="Artboard1" x="0" y="0" width="512" height="512"/>
    </clipPath>
    <g clip-path="url(#_clip1)">
        <rect x="-20.82" y="-15.855" width="572.534" height="548.839" style="fill:rgb(9,67,255);"/>
        <g transform="matrix(8.420187,-1.05292,0,8.456712,-1600.017393,-1035.547188)">
            <path d="M215.269,174.657C215.636,174.49 216.211,174.298 216.994,174.082C217.777,173.865 218.569,173.757 219.369,173.757C220.769,173.757 221.936,173.965 222.869,174.382C223.802,174.798 224.369,175.407 224.569,176.207C224.936,177.573 225.277,178.848 225.594,180.032C225.911,181.215 226.219,182.348 226.519,183.432C226.819,184.515 227.111,185.59 227.394,186.657C227.677,187.723 227.952,188.84 228.219,190.007L228.469,190.007C228.769,187.973 229.036,186.032 229.269,184.182C229.502,182.332 229.719,180.515 229.919,178.732C230.119,176.948 230.319,175.182 230.519,173.432C230.719,171.682 230.919,169.907 231.119,168.107C232.352,167.407 233.669,167.057 235.069,167.057C236.302,167.057 237.369,167.323 238.269,167.857C239.169,168.39 239.619,169.29 239.619,170.557C239.619,171.29 239.544,172.332 239.394,173.682C239.244,175.032 239.044,176.54 238.794,178.207C238.544,179.873 238.252,181.623 237.919,183.457C237.586,185.29 237.236,187.04 236.869,188.707C236.502,190.373 236.127,191.882 235.744,193.232C235.361,194.582 235.002,195.623 234.669,196.357C234.169,196.823 233.352,197.207 232.219,197.507C231.086,197.807 229.919,197.957 228.719,197.957C227.152,197.957 225.827,197.748 224.744,197.332C223.661,196.915 223.002,196.323 222.769,195.557C222.336,194.223 221.869,192.64 221.369,190.807C220.869,188.973 220.336,186.957 219.769,184.757C219.302,186.923 218.819,189.04 218.319,191.107C217.819,193.173 217.369,194.923 216.969,196.357C216.469,196.823 215.719,197.207 214.719,197.507C213.719,197.807 212.619,197.957 211.419,197.957C209.919,197.957 208.561,197.748 207.344,197.332C206.127,196.915 205.336,196.323 204.969,195.557C204.669,194.957 204.344,194.065 203.994,192.882C203.644,191.698 203.286,190.348 202.919,188.832C202.552,187.315 202.177,185.673 201.794,183.907C201.411,182.14 201.061,180.373 200.744,178.607C200.427,176.84 200.136,175.115 199.869,173.432C199.602,171.748 199.402,170.207 199.269,168.807C199.736,168.373 200.386,167.973 201.219,167.607C202.052,167.24 202.952,167.057 203.919,167.057C205.186,167.057 206.227,167.332 207.044,167.882C207.861,168.432 208.369,169.357 208.569,170.657C209.102,174.057 209.544,176.89 209.894,179.157C210.244,181.423 210.527,183.282 210.744,184.732C210.961,186.182 211.119,187.307 211.219,188.107C211.319,188.907 211.419,189.54 211.519,190.007L211.769,190.007C212.069,188.673 212.352,187.44 212.619,186.307C212.886,185.173 213.161,184.032 213.444,182.882C213.727,181.732 214.019,180.498 214.319,179.182C214.619,177.865 214.936,176.357 215.269,174.657Z" style="fill:white;fill-rule:nonzero;"/>
        </g>
    </g>
</svg>
