<?xml version="1.0" encoding="UTF-8" standalone="no"?>
<!DOCTYPE svg PUBLIC "-//W3C//DTD SVG 1.1//EN" "http://www.w3.org/Graphics/SVG/1.1/DTD/svg11.dtd">
<svg width="100%" height="100%" viewBox="0 0 512 512" version="1.1" xmlns="http://www.w3.org/2000/svg" xmlns:xlink="http://www.w3.org/1999/xlink" xml:space="preserve" xmlns:serif="http://www.serif.com/" style="fill-rule:evenodd;clip-rule:evenodd;stroke-linejoin:round;stroke-miterlimit:2;">
    <g transform="matrix(1,0,0,1,3.129752,25.752561)">
        <path d="M275.655,379.206C273.34,386.422 268.797,394.185 266.001,398.074C264.125,400.682 261.031,403.124 255.714,404.966C238.564,410.905 227.117,413.794 212.471,415.665C203.736,416.781 192.66,419.433 183.11,419.358C175.947,419.301 169.604,417.687 165.251,413.434C163.082,411.315 161.24,406.073 159.912,398.863C157.2,384.129 155.624,360.484 151.039,343.011C148.784,334.416 144.26,323.244 140.601,318.481C138.579,315.85 134.4,315.404 131.124,315.442C127.502,315.484 123.021,317.059 119.77,319.404C114.149,323.458 106.291,334.249 99.211,339.16C92.265,343.977 83.421,348.281 75.997,349.367C68.642,350.442 60.713,348.796 54.026,345.549C47.318,342.292 34.61,336.758 26.911,312.556C22.396,298.364 27.182,284.288 30.468,277.522C32.066,274.229 39.197,260.139 40.468,257.522C43.714,250.835 48.927,244.638 55.371,240.934C61.877,237.196 71.488,235.108 79.926,234.598C88.527,234.078 101.375,237.699 108.299,237.408C110.126,237.332 112.055,236.971 113.885,236.392C112.569,230.87 110.456,224.543 108.272,219.518C101.068,202.952 87.683,183.398 80.703,170.141C77.287,163.655 75.492,158.395 75.886,155.389C76.149,153.382 77.678,149.642 77.678,149.642L89.61,126.472C89.61,126.472 93.633,121.788 96.257,119.69C103.714,113.724 114.059,108.958 121.613,104.433C134.279,96.845 145.062,92.036 162.211,86.097C167.528,84.255 171.47,84.261 174.557,85.151C179.159,86.477 181.986,89.881 184.604,93.167C186.4,95.422 187.412,98.65 187.895,102.328C188.501,106.95 188.322,112.348 188.673,116.829C189.289,124.689 188.479,134.719 188.968,142C189.651,152.15 194.783,160.299 203.158,164.716C211.864,169.308 223.9,169.893 237.923,165.037C246.043,162.224 252.98,157.706 258.167,152.293C258.74,146.684 257.486,141.073 254.023,136.008C249.905,129.983 243.065,122.602 238.688,116.045C236.192,112.307 232.713,108.176 230.331,104.169C228.436,100.98 227.235,97.818 227.252,94.934C227.277,90.733 227.392,86.31 230.189,82.421C231.668,80.364 237.392,66.31 240.189,62.421C242.065,59.813 245.159,57.37 250.476,55.529C267.625,49.59 279.072,46.701 293.718,44.83C302.454,43.714 313.53,41.062 323.08,41.137C330.242,41.194 336.585,42.808 340.939,47.061C343.107,49.179 344.95,54.422 346.277,61.632C348.99,76.366 350.565,100.011 355.15,117.484C357.406,126.079 361.929,137.251 365.589,142.014C367.61,144.645 371.789,145.091 375.066,145.053C378.687,145.011 383.169,143.436 386.42,141.091C392.041,137.037 399.898,126.246 406.978,121.335C413.924,116.517 422.768,112.214 430.193,111.128C437.548,110.053 445.476,111.699 452.163,114.946C458.953,118.242 472.235,126.795 476.671,140.406C484.517,164.48 478.969,176.285 475.722,182.973C474.148,186.214 467.013,200.314 465.722,202.973C462.475,209.66 457.263,215.857 450.818,219.56C444.313,223.299 434.701,225.387 426.263,225.897C417.663,226.417 404.814,222.796 397.89,223.087C396.063,223.163 394.135,223.524 392.304,224.103C393.62,229.625 395.733,235.952 397.918,240.977C405.121,257.543 418.506,277.097 425.487,290.354C428.903,296.84 430.697,302.1 430.303,305.106C430.111,306.578 430.074,310.787 428.623,313.961C424.129,323.796 417.756,334.61 409.933,340.805C402.446,346.734 392.131,351.537 384.576,356.062C371.91,363.65 361.128,368.459 343.979,374.398C338.662,376.24 334.719,376.234 331.633,375.344C327.03,374.018 324.203,370.614 321.586,367.328C319.789,365.072 318.777,361.845 318.295,358.167C317.688,353.545 317.867,348.147 317.516,343.666C316.908,335.904 318.465,325.913 317.258,318.808C315.427,308.026 307.575,300.804 297.936,297.007C287.966,293.079 276.054,292.762 266.389,296.109C259.712,298.421 254.12,302.393 249.779,307.216C248.615,313.609 249.298,319.824 252.247,324.612C256.052,330.789 263.151,337.931 267.502,344.45C269.997,348.188 273.476,352.319 275.858,356.326C277.754,359.515 278.955,362.677 278.938,365.56C278.913,369.761 277.118,374.646 275.655,379.206Z"/>
        <path d="M470.728,142.342C466.906,130.612 455.285,123.409 449.433,120.568C443.849,117.857 437.239,116.414 431.097,117.312C424.508,118.276 416.704,122.195 410.54,126.471C403.488,131.362 395.674,142.122 390.076,146.16C385.805,149.24 379.896,151.247 375.139,151.303C370.033,151.362 363.782,149.921 360.633,145.822C356.634,140.618 351.57,128.462 349.105,119.07C344.482,101.453 342.866,77.619 340.131,62.764C339.473,59.191 338.76,56.17 337.896,53.949C337.481,52.883 337.087,52.035 336.571,51.531C333.295,48.33 328.421,47.43 323.03,47.387C313.752,47.314 302.997,49.945 294.51,51.03C280.288,52.847 269.175,55.667 252.521,61.435C248.823,62.716 246.567,64.257 245.263,66.07C243.289,68.815 243.519,72.006 243.502,74.971C243.49,76.866 244.459,78.88 245.704,80.975C248.032,84.892 251.447,88.921 253.886,92.575C258.251,99.114 265.076,106.473 269.183,112.48C283.01,132.707 268.396,161.097 239.968,170.942C223.943,176.492 210.192,175.492 200.242,170.244C189.962,164.822 183.57,154.878 182.732,142.419C182.244,135.159 183.057,125.155 182.442,117.317C182.099,112.937 182.291,107.659 181.698,103.141C181.381,100.725 180.896,98.543 179.715,97.061C177.868,94.742 176.075,92.092 172.827,91.156C170.68,90.538 167.954,90.722 164.256,92.002C147.602,97.77 137.125,102.426 124.825,109.794C117.485,114.191 107.406,118.774 100.161,124.57C95.951,127.938 92.678,131.659 92.083,136.201C91.989,136.916 92.204,137.826 92.537,138.921C93.231,141.2 94.54,144.015 96.233,147.229C103.271,160.594 116.741,180.324 124.003,197.026C127.875,205.931 131.413,218.615 131.489,225.178C131.55,230.346 127.529,235.345 123.48,238.456C119.707,241.355 113.823,243.432 108.561,243.653C101.665,243.942 88.87,240.319 80.303,240.837C72.815,241.289 64.259,243.035 58.486,246.353C53.103,249.446 48.801,254.668 46.09,260.252C43.237,266.128 38.946,278.337 42.866,290.662C49.677,312.071 60.822,317.046 66.756,319.927C72.341,322.638 78.95,324.08 85.093,323.182C91.681,322.219 99.485,318.299 105.649,314.024C112.701,309.133 120.515,298.373 126.113,294.335C130.384,291.254 136.293,289.247 141.051,289.192C146.156,289.133 152.407,290.574 155.557,294.673C159.555,299.877 164.62,312.033 167.084,321.425C171.707,339.042 173.324,362.876 176.059,377.731C176.717,381.304 177.429,384.325 178.293,386.545C178.708,387.612 179.103,388.459 179.619,388.964C182.895,392.165 187.769,393.065 193.159,393.108C202.438,393.181 213.192,390.549 221.679,389.465C235.902,387.648 247.015,384.827 263.669,379.06C267.367,377.779 269.622,376.238 270.927,374.424C272.901,371.68 272.67,368.489 272.688,365.524C272.699,363.629 271.731,361.614 270.486,359.52C268.157,355.603 264.743,351.574 262.304,347.92C257.913,341.342 250.765,334.122 246.926,327.89C242.668,320.978 241.932,311.696 244.464,302.433C248.137,288.997 258.655,275.636 274.343,270.203C285.336,266.396 298.886,266.725 310.226,271.191C321.897,275.788 331.203,284.708 333.42,297.762C334.654,305.026 333.125,315.241 333.747,323.178C334.09,327.558 333.899,332.835 334.492,337.354C334.809,339.77 335.294,341.952 336.474,343.433C338.322,345.753 340.114,348.403 343.363,349.339C345.51,349.957 348.235,349.773 351.933,348.493C368.587,342.725 379.064,338.069 391.365,330.701C398.704,326.304 408.783,321.721 416.029,315.925C420.238,312.557 423.511,308.835 424.106,304.294C424.2,303.578 423.986,302.669 423.652,301.574C422.958,299.295 421.65,296.48 419.957,293.266C412.919,279.901 399.449,260.171 392.186,243.469C388.314,234.564 384.777,221.88 384.7,215.317C384.64,210.149 388.661,205.15 392.709,202.039C396.482,199.14 402.367,197.063 407.628,196.842C414.525,196.553 427.32,200.176 435.886,199.658C443.374,199.206 451.931,197.459 457.704,194.142C463.086,191.048 467.388,185.827 470.1,180.243C472.991,174.289 477.714,163.775 470.728,142.342Z" style="fill:rgb(115,98,242);"/>
    </g>
</svg>
